Coordinates
version=1
nRows=7
nColumns=42
inDegrees=yes

Units are S.I. units (second, meters, Newtons, ...)
If the header above contains a line with 'inDegrees', this indicates whether rotational values are in degrees (yes) or radians (no).

endheader
time	pelvis_tilt	pelvis_list	pelvis_rotation	pelvis_tx	pelvis_ty	pelvis_tz	hip_flexion_r	hip_adduction_r	hip_rotation_r	knee_angle_r	knee_adduction_r	knee_angle_r_beta	ankle_angle_r	subtalar_angle_r	mtp_angle_r	hip_flexion_l	hip_adduction_l	hip_rotation_l	knee_angle_l	knee_adduction_l	knee_angle_l_beta	ankle_angle_l	subtalar_angle_l	mtp_angle_l	lumbar_extension	lumbar_bending	lumbar_rotation	arm_flex_r	arm_add_r	arm_rot_r	elbow_flex_r	pro_sup_r	wrist_flex_r	wrist_dev_r	arm_flex_l	arm_add_l	arm_rot_l	elbow_flex_l	pro_sup_l	wrist_flex_l	wrist_dev_l
      1.05000000	      1.98324293	      9.44247679	      8.35694166	     -0.95971077	      1.00740379	      0.35294210	     12.77091054	    -11.68590488	    -38.19765828	     19.99095245	     -7.68780418	      0.34890794	      7.34491347	     30.18229379	     -7.62465525	      3.28926347	      0.08562399	      3.76769762	     50.00225012	      6.14209430	      0.87270390	     -6.03823629	    -13.34510430	     -7.62465525	    -27.11344745	     -9.12570820	     -8.65777826	     -1.52543448	    -11.73528022	     14.56739438	     41.48945780	     90.00000001	      0.00000000	      0.00000000	     12.81765064	    -20.48639361	      8.59498349	     46.49542752	     90.00000001	      0.00000000	      0.00000000
      1.06000000	      2.19707719	      9.39152298	      8.10644820	     -0.95317095	      1.00800346	      0.35480855	     12.06250710	    -11.40890934	    -38.25556236	     19.81588994	     -7.58774996	      0.34585252	      7.69722024	     30.21242517	     -7.62259254	      4.33829474	     -0.36701804	      3.46743143	     51.20494248	      6.44921887	      0.89369484	     -5.66182295	    -13.92012987	     -7.62259254	    -27.28310294	     -9.20433983	     -8.20318128	     -0.63065852	    -12.05655794	     14.66908192	     41.59878489	     90.00000001	      0.00000000	      0.00000000	     11.82898098	    -20.44912397	      7.96746205	     46.19288170	     90.00000001	      0.00000000	      0.00000000
      1.07000000	      2.37082146	      9.56679934	      7.74868418	     -0.94665104	      1.00865497	      0.35651913	     11.44595133	    -11.44195050	    -38.14613197	     19.76497478	     -7.45037824	      0.34496389	      7.81818371	     30.02499130	     -7.62172611	      5.22228635	     -0.48073752	      3.26063921	     51.71953020	      6.78229531	      0.90267609	     -5.51957098	    -13.83262311	     -7.62172611	    -27.42030866	     -9.54521291	     -7.50591265	      0.14390577	    -12.39201045	     14.58212647	     41.77700964	     90.00000001	      0.00000000	      0.00000000	     11.01207124	    -20.43524283	      7.83661564	     45.95898230	     90.00000001	      0.00000000	      0.00000000
      1.08000000	      2.50382565	      9.29106778	      7.49322379	     -0.94018573	      1.00896347	      0.35830993	     10.88469070	    -10.89671316	    -38.32979683	     19.55415564	     -7.51776446	      0.34128440	      8.48189468	     31.17771959	     -7.61460792	      6.41551028	     -1.17747515	      2.62302736	     52.44103454	      6.80210965	      0.91526872	     -5.07644398	    -14.68900229	     -7.61460792	    -27.42341226	     -9.39723361	     -7.28751970	      1.67978681	    -12.79714914	     16.06448455	     40.77028780	     90.00000001	      0.00000000	      0.00000000	      9.52858974	    -19.62889578	      3.86043865	     45.97019999	     90.00000001	      0.00000000	      0.00000000
      1.09000000	      2.63428666	      9.33383830	      7.16632489	     -0.93384858	      1.00943423	      0.35997459	     10.32760744	    -10.77992928	    -38.27779468	     19.45464046	     -7.40008361	      0.33954753	      8.63686596	     30.95175307	     -7.61373742	      7.34834595	     -1.40305710	      2.28996553	     52.37481236	      6.93254352	      0.91411292	     -4.84169367	    -14.59257528	     -7.61373742	    -27.51010834	     -9.60704339	     -6.60912082	      2.53228805	    -13.18580821	     15.94781435	     40.97044987	     90.00000001	      0.00000000	      0.00000000	      8.70109662	    -19.63177551	      3.76268417	     45.72050190	     90.00000001	      0.00000000	      0.00000000
      1.10000000	      2.76785656	      9.28371599	      6.87028021	     -0.92754815	      1.00983252	      0.36156663	      9.76419055	    -10.54214540	    -38.22311161	     19.34415351	     -7.32243313	      0.33761917	      8.84135006	     30.73569463	     -7.61278363	      8.30252117	     -1.67381251	      1.89817110	     52.07762949	      6.88198845	      0.90892610	     -4.54133969	    -14.49920220	     -7.61278363	    -27.56358931	     -9.70302656	     -5.95778124	      3.39546278	    -13.54291374	     15.85726639	     41.10451083	     90.00000001	      0.00000000	      0.00000000	      7.84957014	    -19.64055163	      3.61040045	     45.48676847	     90.00000001	      0.00000000	      0.00000000
      1.11000000	      2.90837471	      9.17419702	      6.58976006	     -0.92128312	      1.01014860	      0.36308514	      9.19813458	    -10.21738722	    -38.14256995	     19.20156713	     -7.27383876	      0.33513057	      9.09877453	     30.58899533	     -7.61182853	      9.23017782	     -1.97982931	      1.42075454	     51.51259395	      6.69214292	      0.89906437	     -4.20107832	    -14.43667921	     -7.61182853	    -27.60312145	     -9.72260018	     -5.32047203	      4.35578854	    -13.92475437	     15.78508153	     41.16581945	     90.00000001	      0.00000000	      0.00000000	      6.93402984	    -19.62573198	      3.40146116	     45.24675455	     90.00000001	      0.00000000	      0.00000000
